<svg xmlns="http://www.w3.org/2000/svg" width="24" height="24" viewBox="0 0 48 48">
  <path fill="#FFC107" d="M43.6 20.3H42V20H24v8h11.3C33.1 33.9 29 37 24 37c-7.2 0-13-5.8-13-13s5.8-13 13-13c3.3 0 6.4 1.2 8.7 3.3l5.7-5.7C34.1 5.1 29.3 3 24 3 12.4 3 3 12.4 3 24s9.4 21 21 21c10.5 0 20-7.6 20-21 0-1.3-.1-2.7-.4-3.7z"/>
  <path fill="#FF3D00" d="M6.3 14.7l6.6 4.8C14.4 15.1 18.8 12 24 12c3.3 0 6.4 1.2 8.7 3.3l5.7-5.7C34.1 5.1 29.3 3 24 3 16.2 3 9.3 7.4 6.3 14.7z"/>
  <path fill="#4CAF50" d="M24 45c5.1 0 9.8-1.9 13.4-5.1l-6.2-5c-2 1.5-4.7 2.6-7.2 2.6-5 0-9.1-3.2-10.5-7.6l-6.6 5.1C9.2 40.6 16 45 24 45z"/>
  <path fill="#1976D2" d="M43.6 20.3H42V20H24v8h11.3c-.9 2.9-2.8 5.3-5.2 6.9l-.1.1 6.2 5c3.5-3.2 5.8-7.9 5.8-14 0-1.3-.1-2.7-.4-3.7z"/>
</svg>
